<?xml version="1.0" encoding="utf-8"?>
<!-- Generator: Adobe Illustrator 26.1.0, SVG Export Plug-In . SVG Version: 6.00 Build 0)  -->
<svg version="1.1" id="Layer_1" xmlns="http://www.w3.org/2000/svg" xmlns:xlink="http://www.w3.org/1999/xlink" x="0px" y="0px"
	 viewBox="0 0 71.5 90.9" style="enable-background:new 0 0 71.5 90.9;" xml:space="preserve">
<style type="text/css">
	.st0{fill:#FFFFFF;}
</style>
<path id="Icon_ionic-ios-lock" class="st0" d="M62.5,31.5h-5.4V21.3C57.1,9.4,47.4-0.1,35.6,0C24,0.1,14.5,9.4,14.3,21v10.5H8.9
	c-4.9,0-8.9,3.9-8.9,8.7v41.9c0.1,4.9,4.1,8.8,8.9,8.7h53.6c4.9,0,8.9-3.9,8.9-8.7V40.2C71.4,35.3,67.4,31.4,62.5,31.5z M38.9,58.7
	v15c0,1.7-1.3,3.1-3,3.1c-1.7,0.1-3.2-1.2-3.3-2.9c0,0,0-0.1,0-0.1V58.7c-2.6-1.2-4.2-4-4-6.9c0.4-3.9,4-6.8,7.9-6.3
	c3.6,0.4,6.3,3.4,6.4,7C42.9,55.1,41.3,57.6,38.9,58.7L38.9,58.7z M50.9,31.5H20.6V21c0-4,1.6-7.7,4.5-10.5c6-5.8,15.5-5.8,21.4,0
	c2.9,2.7,4.5,6.5,4.5,10.5L50.9,31.5z"/>
</svg>
