<?xml version="1.0" encoding="utf-8"?>
<!-- Generator: Adobe Illustrator 26.1.0, SVG Export Plug-In . SVG Version: 6.00 Build 0)  -->
<svg version="1.1" id="Layer_1" xmlns="http://www.w3.org/2000/svg" xmlns:xlink="http://www.w3.org/1999/xlink" x="0px" y="0px"
	 viewBox="0 0 35.6 26.4" style="enable-background:new 0 0 35.6 26.4;" xml:space="preserve">
<style type="text/css">
	.st0{fill:#FFFFFF;}
</style>
<g id="Komponente_12_2" transform="translate(1.5 1.5)">
	<path class="st0" d="M32.6,1.5H0c-0.8,0-1.5-0.7-1.5-1.5S-0.8-1.5,0-1.5h32.6c0.8,0,1.5,0.7,1.5,1.5S33.5,1.5,32.6,1.5z"/>
	<path class="st0" d="M32.6,13.2H0c-0.8,0-1.5-0.7-1.5-1.5s0.7-1.5,1.5-1.5h32.6c0.8,0,1.5,0.7,1.5,1.5S33.5,13.2,32.6,13.2z"/>
	<path class="st0" d="M32.6,24.9H0c-0.8,0-1.5-0.7-1.5-1.5s0.7-1.5,1.5-1.5h32.6c0.8,0,1.5,0.7,1.5,1.5S33.5,24.9,32.6,24.9z"/>
</g>
</svg>
