<?xml version="1.0" encoding="UTF-8"?><svg id="a" xmlns="http://www.w3.org/2000/svg" viewBox="0 0 276.59 276.59"><defs><style>.b{fill:#f9e930;opacity:.2;}</style></defs><polygon class="b" points="124.39 132.48 137.01 145.11 137.01 145.11 149.64 132.48 137.01 119.85 124.39 132.48"/><polygon class="b" points="162.28 145.1 150.4 156.98 150.4 156.98 137.01 170.37 131.98 165.34 111.75 145.11 99.12 157.74 135.18 193.8 135.18 193.8 137.01 195.63 146.98 185.66 149.64 183 162.27 170.37 174.89 157.74 174.89 157.73 174.9 157.73 162.28 145.1"/><rect class="b" x="178.6" y="123.55" width="17.85" height="17.86" transform="translate(-38.75 171.4) rotate(-45)"/><path class="b" d="M54.82,35.65l-3.79-4.65C18.6,57.41,0,96.52,0,138.3H6c0-39.97,17.79-77.38,48.82-102.64Z"/><path class="b" d="M5.94,178.5c5.66,18.65,15.04,35.6,27.87,50.4l4.53-3.93c-12.28-14.15-21.25-30.37-26.66-48.21l-5.74,1.74Z"/><path class="b" d="M53.83,247.81c24.38,18.83,53.59,28.78,84.46,28.78v-6c-29.54,0-57.48-9.52-80.8-27.53l-3.67,4.75Z"/><path class="b" d="M270.59,138.3c0,54.66-32.84,102.97-83.66,123.07l2.21,5.58c25.5-10.09,47.26-27.38,62.93-50.01,16.04-23.17,24.52-50.36,24.52-78.64h-6Z"/><path class="b" d="M244.53,59.43l4.81-3.58c-12.61-16.95-29.17-31-47.91-40.63C181.78,5.12,160.54,0,138.3,0V6c42.26,0,80.98,19.47,106.23,53.43Z"/><path class="b" d="M236.42,138.3c0-54.11-44.02-98.13-98.13-98.13S40.17,84.19,40.17,138.3s44.02,98.13,98.13,98.13,98.13-44.02,98.13-98.13Zm-98.13,95.13c-52.45,0-95.13-42.67-95.13-95.13S85.84,43.17,138.3,43.17s95.13,42.67,95.13,95.13-42.67,95.13-95.13,95.13Z"/><rect class="b" x="77.57" y="123.54" width="17.86" height="17.86" transform="translate(-68.34 99.97) rotate(-45)"/><polygon class="b" points="119.08 112.53 119.08 112.53 137.01 94.6 143.42 101.01 162.27 119.86 174.89 107.23 174.89 107.22 174.9 107.22 162.28 94.59 137.02 69.33 130.52 75.83 130.52 75.83 116.79 89.56 116.79 89.56 99.12 107.23 111.75 119.86 119.08 112.53"/><path class="b" d="M169.74,30.45l2.24-7.68c-5.48-1.59-11.12-2.81-16.78-3.6l-1.11,7.92c5.28,.74,10.55,1.87,15.66,3.36Z"/><path class="b" d="M138.25,25.99l-.33-7.99c-5.77,.24-11.48,.78-16.95,1.61l1.2,7.91c5.19-.79,10.6-1.3,16.08-1.52Z"/><path class="b" d="M77.15,43.67l-4.23-6.79c-4.88,3.04-9.54,6.46-13.86,10.18l5.21,6.07c4.01-3.45,8.35-6.63,12.88-9.46Z"/><path class="b" d="M106.43,30.88l-2.16-7.7c-5.56,1.56-10.99,3.49-16.15,5.73l3.19,7.34c4.82-2.1,9.91-3.9,15.12-5.36Z"/><path class="b" d="M198.84,43.69l4.32-6.73c-4.81-3.09-9.89-5.85-15.08-8.21l-3.31,7.28c4.84,2.21,9.58,4.78,14.07,7.67Z"/><path class="b" d="M239.39,73.04l-6.72,4.34c2.9,4.48,5.49,9.2,7.71,14.03l7.27-3.34c-2.38-5.17-5.16-10.23-8.26-15.03Z"/><path class="b" d="M211.68,53.28c4.03,3.48,7.85,7.29,11.35,11.31l6.03-5.25c-3.75-4.3-7.84-8.38-12.16-12.11l-5.23,6.05Z"/><path class="b" d="M258.61,138.3v-.27h-8v.27c0,5.35-.38,10.73-1.13,15.98l7.92,1.13c.8-5.63,1.21-11.38,1.21-17.11Z"/><path class="b" d="M240.49,184.95l7.28,3.33c2.38-5.2,4.4-10.61,6-16.09l-7.68-2.25c-1.5,5.11-3.38,10.17-5.6,15.02Z"/><path class="b" d="M249.44,122.05l7.92-1.15c-.82-5.66-2.06-11.3-3.67-16.77l-7.67,2.27c1.51,5.1,2.66,10.37,3.43,15.65Z"/><path class="b" d="M203.38,239.5c4.79-3.09,9.41-6.55,13.72-10.29l-5.24-6.04c-4.03,3.5-8.34,6.73-12.82,9.61l4.33,6.72Z"/><path class="b" d="M77.37,233.06l-4.21,6.8c4.81,2.98,9.93,5.65,15.23,7.94l3.17-7.34c-4.93-2.13-9.71-4.62-14.19-7.4Z"/><path class="b" d="M106.69,245.78l-2.14,7.71c5.37,1.5,10.99,2.69,16.71,3.54l1.18-7.91c-5.39-.81-10.69-1.93-15.75-3.34Z"/><path class="b" d="M138.36,250.61v8c5.73,0,11.49-.41,17.12-1.22l-1.13-7.92c-5.25,.75-10.63,1.13-15.98,1.14Z"/><path class="b" d="M43.58,77.35c2.81-4.54,5.98-8.88,9.42-12.91l-6.09-5.19c-3.7,4.34-7.11,9.01-10.13,13.89l6.8,4.22Z"/><path class="b" d="M64.47,223.64c-4.03-3.45-7.83-7.25-11.3-11.29l-6.07,5.21c3.73,4.35,7.83,8.44,12.17,12.16l5.2-6.08Z"/><path class="b" d="M223.19,211.83l6.04,5.24c3.74-4.32,7.21-8.94,10.29-13.73l-6.73-4.33c-2.88,4.48-6.12,8.79-9.61,12.82Z"/><path class="b" d="M30.91,170.17c-1.42-5.12-2.51-10.42-3.23-15.72l-7.93,1.07c.77,5.67,1.93,11.32,3.44,16.79l7.71-2.14Z"/><path class="b" d="M28.94,188.48c2.3,5.27,4.99,10.39,7.99,15.21l6.79-4.23c-2.8-4.49-5.3-9.26-7.45-14.17l-7.33,3.2Z"/><path class="b" d="M27.65,122.39l-7.93-1.06c-.75,5.59-1.12,11.3-1.12,16.96v.13h8v-.13c0-5.31,.35-10.66,1.05-15.9Z"/><path class="b" d="M28.83,88.35c-2.26,5.2-4.17,10.65-5.7,16.18l7.71,2.12c1.42-5.17,3.21-10.26,5.32-15.12l-7.34-3.18Z"/><path class="b" d="M185,240.47c-4.85,2.22-9.89,4.1-15,5.6l2.25,7.68c5.48-1.61,10.89-3.63,16.08-6.01l-3.33-7.27Z"/></svg>